<svg xmlns="http://www.w3.org/2000/svg" xmlns:xlink="http://www.w3.org/1999/xlink" width="500" zoomAndPan="magnify" viewBox="0 0 375 374.999991" height="500" preserveAspectRatio="xMidYMid meet" version="1.0"><defs><g/><clipPath id="8ecf9e41e6"><path d="M 111 104 L 270 104 L 270 222 L 111 222 Z M 111 104 " clip-rule="nonzero"/></clipPath><clipPath id="53e709089b"><path d="M 93.191406 167.871094 L 267.714844 104.582031 L 287.128906 158.117188 L 112.605469 221.40625 Z M 93.191406 167.871094 " clip-rule="nonzero"/></clipPath><clipPath id="9ce7c9a832"><path d="M 111.039062 161.398438 L 267.714844 104.582031 L 269.28125 164.589844 L 112.605469 221.40625 Z M 111.039062 161.398438 " clip-rule="nonzero"/></clipPath><clipPath id="176b04f364"><path d="M 101 113 L 265 113 L 265 212 L 101 212 Z M 101 113 " clip-rule="nonzero"/></clipPath><clipPath id="2a0936ecdf"><path d="M 87.875 155.972656 L 264.566406 113.75 L 277.800781 169.140625 L 101.109375 211.363281 Z M 87.875 155.972656 " clip-rule="nonzero"/></clipPath><clipPath id="db2bd6d2ed"><path d="M 106.335938 151.5625 L 264.566406 113.75 L 259.339844 173.550781 L 101.109375 211.363281 Z M 106.335938 151.5625 " clip-rule="nonzero"/></clipPath><clipPath id="a8ed17588c"><path d="M 134 162 L 265 162 L 265 271 L 134 271 Z M 134 162 " clip-rule="nonzero"/></clipPath><clipPath id="880ca04392"><path d="M 117.136719 217.125 L 261.980469 162.554688 L 282.058594 215.84375 L 137.214844 270.414062 Z M 117.136719 217.125 " clip-rule="nonzero"/></clipPath><clipPath id="9290b42e7d"><path d="M 134.902344 210.429688 L 261.980469 162.554688 L 264.292969 222.539062 L 137.214844 270.414062 Z M 134.902344 210.429688 " clip-rule="nonzero"/></clipPath><clipPath id="f6cf336085"><path d="M 131 169 L 258 169 L 258 261 L 131 261 Z M 131 169 " clip-rule="nonzero"/></clipPath><clipPath id="8c1d245a52"><path d="M 117.136719 204.878906 L 257.835938 169.402344 L 271.757812 224.625 L 131.058594 260.097656 Z M 117.136719 204.878906 " clip-rule="nonzero"/></clipPath><clipPath id="6f7f33fdb9"><path d="M 135.542969 200.238281 L 257.835938 169.402344 L 253.351562 229.265625 L 131.058594 260.097656 Z M 135.542969 200.238281 " clip-rule="nonzero"/></clipPath></defs><g clip-path="url(#8ecf9e41e6)"><g clip-path="url(#53e709089b)"><g clip-path="url(#9ce7c9a832)"><path fill="#ff6e27" d="M 93.191406 167.871094 L 267.714844 104.582031 L 287.128906 158.117188 L 112.605469 221.40625 Z M 93.191406 167.871094 " fill-opacity="1" fill-rule="nonzero"/></g></g></g><g clip-path="url(#176b04f364)"><g clip-path="url(#2a0936ecdf)"><g clip-path="url(#db2bd6d2ed)"><path fill="#14102a" d="M 87.875 155.972656 L 264.566406 113.75 L 277.800781 169.140625 L 101.109375 211.363281 Z M 87.875 155.972656 " fill-opacity="1" fill-rule="nonzero"/></g></g></g><g clip-path="url(#a8ed17588c)"><g clip-path="url(#880ca04392)"><g clip-path="url(#9290b42e7d)"><path fill="#ff6e27" d="M 117.136719 217.125 L 261.980469 162.554688 L 282.058594 215.84375 L 137.214844 270.414062 Z M 117.136719 217.125 " fill-opacity="1" fill-rule="nonzero"/></g></g></g><g clip-path="url(#f6cf336085)"><g clip-path="url(#8c1d245a52)"><g clip-path="url(#6f7f33fdb9)"><path fill="#14102a" d="M 117.136719 204.878906 L 257.835938 169.402344 L 271.757812 224.625 L 131.058594 260.097656 Z M 117.136719 204.878906 " fill-opacity="1" fill-rule="nonzero"/></g></g></g><g fill="#ffffff" fill-opacity="1"><g transform="translate(125.907, 195.820317)"><g><path d="M 1.921875 -0.5 L -3.546875 -34.671875 L -3.625 -35.125 L -3.1875 -35.21875 L 1.671875 -36.390625 L 2.1875 -36.515625 L 2.28125 -35.984375 L 4.609375 -20.5 L 5.53125 -13.296875 L 6.28125 -21.109375 L 7.96875 -37.546875 L 8.015625 -37.90625 L 8.34375 -37.984375 L 13.125 -39.125 L 13.8125 -39.28125 L 13.71875 -38.5625 L 9.203125 -2.015625 L 9.15625 -1.6875 L 8.8125 -1.609375 L 2.515625 -0.109375 L 2 0.015625 Z M 1.921875 -0.5 "/></g></g></g><g fill="#ffffff" fill-opacity="1"><g transform="translate(144.561139, 191.367567)"><g><path d="M 11.9375 -4.40625 C 10.707031 -2.476562 8.734375 -1.191406 6.015625 -0.546875 C 3.242188 0.117188 1.207031 -0.242188 -0.09375 -1.640625 C -1.375 -3.003906 -2.023438 -5.367188 -2.046875 -8.734375 L -2.234375 -35.078125 L -2.234375 -35.46875 L -1.84375 -35.5625 L 3.265625 -36.78125 L 3.84375 -36.921875 L 3.859375 -36.296875 L 4.046875 -10.0625 C 4.046875 -9.695312 4.050781 -9.351562 4.0625 -9.03125 C 4.070312 -8.707031 4.085938 -8.429688 4.109375 -8.203125 C 4.128906 -7.972656 4.144531 -7.757812 4.15625 -7.5625 C 4.175781 -7.363281 4.195312 -7.222656 4.21875 -7.140625 C 4.238281 -7.054688 4.257812 -6.988281 4.28125 -6.9375 C 4.320312 -6.8125 4.367188 -6.703125 4.421875 -6.609375 C 4.484375 -6.515625 4.546875 -6.421875 4.609375 -6.328125 C 4.671875 -6.234375 4.738281 -6.15625 4.8125 -6.09375 C 4.8125 -6.082031 4.835938 -6.066406 4.890625 -6.046875 C 4.941406 -6.023438 5.046875 -6.015625 5.203125 -6.015625 C 5.367188 -6.023438 5.5625 -6.050781 5.78125 -6.09375 C 6.375 -6.238281 6.796875 -6.515625 7.046875 -6.921875 C 7.203125 -7.160156 7.316406 -7.414062 7.390625 -7.6875 C 7.472656 -7.96875 7.523438 -8.257812 7.546875 -8.5625 C 7.609375 -9.238281 7.640625 -10.101562 7.640625 -11.15625 L 7.453125 -37.390625 L 7.453125 -37.78125 L 7.828125 -37.875 L 12.9375 -39.09375 L 13.53125 -39.234375 L 13.546875 -38.609375 L 13.71875 -12.28125 C 13.757812 -8.914062 13.164062 -6.289062 11.9375 -4.40625 Z M 11.9375 -4.40625 "/></g></g></g><g fill="#ffffff" fill-opacity="1"><g transform="translate(164.244953, 186.669033)"><g><path d="M -1.828125 0.296875 L -2.09375 -35.09375 L -2.109375 -35.484375 L -1.734375 -35.578125 L 3.390625 -36.796875 L 3.984375 -36.9375 L 3.984375 -36.3125 L 4.1875 -6.09375 L 10.078125 -7.5 L 10.671875 -7.640625 L 10.671875 -7.03125 L 10.734375 -2.421875 L 10.734375 -2.0625 L 10.359375 -1.96875 L -1.234375 0.78125 L -1.828125 0.921875 Z M -1.828125 0.296875 "/></g></g></g><g fill="#ffffff" fill-opacity="1"><g transform="translate(178.990137, 183.149353)"><g><path d="M -0.109375 -0.109375 L -0.328125 -30.21875 L -3.671875 -29.421875 L -4.265625 -29.265625 L -4.265625 -29.90625 L -4.296875 -34.5625 L -4.3125 -34.953125 L -3.9375 -35.046875 L 8.859375 -38.109375 L 9.453125 -38.25 L 9.46875 -37.625 L 9.5 -32.953125 L 9.515625 -32.5625 L 9.125 -32.46875 L 5.734375 -31.65625 L 5.953125 -1.296875 L 5.953125 -0.921875 L 5.578125 -0.84375 L 0.484375 0.375 L -0.109375 0.515625 Z M -0.109375 -0.109375 "/></g></g></g><g fill="#ffffff" fill-opacity="1"><g transform="translate(192.629372, 179.893662)"><g><path d="M 11.9375 -4.40625 C 10.707031 -2.476562 8.734375 -1.191406 6.015625 -0.546875 C 3.242188 0.117188 1.207031 -0.242188 -0.09375 -1.640625 C -1.375 -3.003906 -2.023438 -5.367188 -2.046875 -8.734375 L -2.234375 -35.078125 L -2.234375 -35.46875 L -1.84375 -35.5625 L 3.265625 -36.78125 L 3.84375 -36.921875 L 3.859375 -36.296875 L 4.046875 -10.0625 C 4.046875 -9.695312 4.050781 -9.351562 4.0625 -9.03125 C 4.070312 -8.707031 4.085938 -8.429688 4.109375 -8.203125 C 4.128906 -7.972656 4.144531 -7.757812 4.15625 -7.5625 C 4.175781 -7.363281 4.195312 -7.222656 4.21875 -7.140625 C 4.238281 -7.054688 4.257812 -6.988281 4.28125 -6.9375 C 4.320312 -6.8125 4.367188 -6.703125 4.421875 -6.609375 C 4.484375 -6.515625 4.546875 -6.421875 4.609375 -6.328125 C 4.671875 -6.234375 4.738281 -6.15625 4.8125 -6.09375 C 4.8125 -6.082031 4.835938 -6.066406 4.890625 -6.046875 C 4.941406 -6.023438 5.046875 -6.015625 5.203125 -6.015625 C 5.367188 -6.023438 5.5625 -6.050781 5.78125 -6.09375 C 6.375 -6.238281 6.796875 -6.515625 7.046875 -6.921875 C 7.203125 -7.160156 7.316406 -7.414062 7.390625 -7.6875 C 7.472656 -7.96875 7.523438 -8.257812 7.546875 -8.5625 C 7.609375 -9.238281 7.640625 -10.101562 7.640625 -11.15625 L 7.453125 -37.390625 L 7.453125 -37.78125 L 7.828125 -37.875 L 12.9375 -39.09375 L 13.53125 -39.234375 L 13.546875 -38.609375 L 13.71875 -12.28125 C 13.757812 -8.914062 13.164062 -6.289062 11.9375 -4.40625 Z M 11.9375 -4.40625 "/></g></g></g><g fill="#ffffff" fill-opacity="1"><g transform="translate(212.313182, 175.19513)"><g><path d="M 5.390625 -17.453125 L 4.15625 -17.203125 L 4.25 -0.890625 L 4.265625 -0.515625 L 3.875 -0.4375 L -1.234375 0.78125 L -1.828125 0.921875 L -1.828125 0.296875 L -2.09375 -35.09375 L -2.109375 -35.484375 L -1.734375 -35.578125 L 6.71875 -37.59375 C 8.601562 -38.039062 10.039062 -37.957031 11.03125 -37.34375 C 12.03125 -36.738281 12.6875 -35.734375 13 -34.328125 C 13.039062 -34.128906 13.078125 -33.925781 13.109375 -33.71875 C 13.140625 -33.519531 13.171875 -33.3125 13.203125 -33.09375 C 13.234375 -32.875 13.257812 -32.640625 13.28125 -32.390625 C 13.3125 -32.148438 13.335938 -31.898438 13.359375 -31.640625 C 13.390625 -31.390625 13.410156 -31.125 13.421875 -30.84375 C 13.429688 -30.570312 13.4375 -30.285156 13.4375 -29.984375 C 13.4375 -29.691406 13.441406 -29.394531 13.453125 -29.09375 C 13.460938 -27.988281 13.414062 -27 13.3125 -26.125 C 13.207031 -25.257812 13.039062 -24.503906 12.8125 -23.859375 C 12.488281 -22.890625 11.953125 -22.082031 11.203125 -21.4375 C 11.578125 -21.269531 11.898438 -21.015625 12.171875 -20.671875 C 12.453125 -20.335938 12.675781 -19.925781 12.84375 -19.4375 C 12.976562 -19.050781 13.09375 -18.585938 13.1875 -18.046875 C 13.28125 -17.515625 13.359375 -16.867188 13.421875 -16.109375 C 13.492188 -15.359375 13.546875 -14.519531 13.578125 -13.59375 C 13.617188 -12.664062 13.644531 -11.625 13.65625 -10.46875 C 13.6875 -6.195312 13.753906 -3.832031 13.859375 -3.375 L 14.0625 -2.859375 L 13.515625 -2.734375 L 8.40625 -1.515625 L 8.046875 -1.421875 L 7.875 -1.734375 C 7.738281 -1.960938 7.648438 -2.707031 7.609375 -3.96875 C 7.578125 -5.226562 7.554688 -7.546875 7.546875 -10.921875 C 7.535156 -12.492188 7.53125 -13.726562 7.53125 -14.625 C 7.519531 -15.34375 7.46875 -15.957031 7.375 -16.46875 C 7.28125 -16.976562 7.175781 -17.257812 7.0625 -17.3125 C 6.820312 -17.59375 6.265625 -17.640625 5.390625 -17.453125 Z M 4.125 -22.4375 L 5.5625 -22.78125 C 6.101562 -22.90625 6.488281 -23.117188 6.71875 -23.421875 C 6.8125 -23.503906 6.882812 -23.613281 6.9375 -23.75 C 7 -23.894531 7.054688 -24.066406 7.109375 -24.265625 C 7.171875 -24.460938 7.222656 -24.679688 7.265625 -24.921875 C 7.304688 -25.296875 7.34375 -25.765625 7.375 -26.328125 C 7.40625 -26.898438 7.421875 -27.566406 7.421875 -28.328125 L 7.390625 -28.5 L 7.421875 -28.53125 L 7.421875 -28.5625 C 7.398438 -30.382812 7.257812 -31.519531 7 -31.96875 C 6.914062 -32.09375 6.75 -32.175781 6.5 -32.21875 C 6.25 -32.269531 5.882812 -32.238281 5.40625 -32.125 L 4.046875 -31.796875 Z M 4.125 -22.4375 "/></g></g></g><g fill="#ffffff" fill-opacity="1"><g transform="translate(231.806313, 170.542112)"><g><path d="M -1.828125 0.296875 L -2.09375 -35.09375 L -2.109375 -35.484375 L -1.734375 -35.578125 L 9.53125 -38.265625 L 10.125 -38.40625 L 10.125 -37.78125 L 10.15625 -33.125 L 10.171875 -32.734375 L 9.796875 -32.640625 L 4.03125 -31.265625 L 4.09375 -21.984375 L 9.34375 -23.234375 L 9.953125 -23.390625 L 9.9375 -22.75 L 9.96875 -18.203125 L 9.984375 -17.828125 L 9.59375 -17.734375 L 4.140625 -16.4375 L 4.203125 -6.15625 L 9.984375 -7.53125 L 10.578125 -7.671875 L 10.59375 -7.046875 L 10.625 -2.40625 L 10.625 -2.046875 L 10.25 -1.953125 L -1.234375 0.78125 L -1.828125 0.921875 Z M -1.828125 0.296875 "/></g></g></g><g fill="#ffffff" fill-opacity="1"><g transform="translate(162.274971, 235.959854)"><g><path d="M 11.5 -4.46875 C 10.28125 -2.4375 8.363281 -1.109375 5.75 -0.484375 C 3.070312 0.160156 1.050781 -0.316406 -0.3125 -1.921875 C -1.625 -3.484375 -2.289062 -5.960938 -2.3125 -9.359375 L -2.4375 -24.796875 C -2.476562 -30.234375 -1.128906 -33.960938 1.609375 -35.984375 C 2.640625 -36.753906 3.867188 -37.304688 5.296875 -37.640625 C 6.035156 -37.816406 6.71875 -37.90625 7.34375 -37.90625 C 9.226562 -37.9375 10.648438 -37.207031 11.609375 -35.71875 C 12.578125 -34.238281 13.054688 -32.144531 13.046875 -29.4375 L 13.078125 -24.578125 L 13.09375 -24.1875 L 12.71875 -24.09375 L 7.765625 -22.90625 L 7.1875 -22.765625 L 7.171875 -23.390625 L 7.140625 -27.921875 C 7.117188 -29.679688 6.972656 -30.890625 6.703125 -31.546875 C 6.585938 -31.796875 6.445312 -31.957031 6.28125 -32.03125 C 6.113281 -32.101562 5.863281 -32.097656 5.53125 -32.015625 C 4.851562 -31.859375 4.390625 -31.410156 4.140625 -30.671875 C 3.984375 -30.242188 3.863281 -29.710938 3.78125 -29.078125 C 3.707031 -28.453125 3.671875 -27.722656 3.671875 -26.890625 L 3.796875 -10.34375 C 3.816406 -8.5 3.976562 -7.242188 4.28125 -6.578125 C 4.394531 -6.296875 4.539062 -6.113281 4.71875 -6.03125 C 4.894531 -5.957031 5.140625 -5.960938 5.453125 -6.046875 C 6.109375 -6.203125 6.5625 -6.644531 6.8125 -7.375 C 6.863281 -7.550781 6.914062 -7.738281 6.96875 -7.9375 C 7.03125 -8.144531 7.078125 -8.375 7.109375 -8.625 C 7.148438 -8.882812 7.179688 -9.160156 7.203125 -9.453125 C 7.222656 -9.742188 7.234375 -10.054688 7.234375 -10.390625 C 7.234375 -10.722656 7.238281 -11.078125 7.25 -11.453125 L 7.21875 -16.53125 L 7.203125 -16.921875 L 7.578125 -17 L 12.59375 -18.203125 L 13.1875 -18.34375 L 13.1875 -17.71875 L 13.25 -12.71875 C 13.269531 -9.21875 12.6875 -6.46875 11.5 -4.46875 Z M 11.5 -4.46875 "/></g></g></g><g fill="#ffffff" fill-opacity="1"><g transform="translate(180.833769, 231.529862)"><g><path d="M -1.828125 0.296875 L -2.09375 -35.09375 L -2.109375 -35.484375 L -1.734375 -35.578125 L 3.390625 -36.796875 L 3.984375 -36.9375 L 3.984375 -36.3125 L 4.1875 -6.09375 L 10.078125 -7.5 L 10.671875 -7.640625 L 10.671875 -7.03125 L 10.734375 -2.421875 L 10.734375 -2.0625 L 10.359375 -1.96875 L -1.234375 0.78125 L -1.828125 0.921875 Z M -1.828125 0.296875 "/></g></g></g><g fill="#ffffff" fill-opacity="1"><g transform="translate(195.578952, 228.010182)"><g><path d="M 11.9375 -4.40625 C 10.707031 -2.476562 8.734375 -1.191406 6.015625 -0.546875 C 3.242188 0.117188 1.207031 -0.242188 -0.09375 -1.640625 C -1.375 -3.003906 -2.023438 -5.367188 -2.046875 -8.734375 L -2.234375 -35.078125 L -2.234375 -35.46875 L -1.84375 -35.5625 L 3.265625 -36.78125 L 3.84375 -36.921875 L 3.859375 -36.296875 L 4.046875 -10.0625 C 4.046875 -9.695312 4.050781 -9.351562 4.0625 -9.03125 C 4.070312 -8.707031 4.085938 -8.429688 4.109375 -8.203125 C 4.128906 -7.972656 4.144531 -7.757812 4.15625 -7.5625 C 4.175781 -7.363281 4.195312 -7.222656 4.21875 -7.140625 C 4.238281 -7.054688 4.257812 -6.988281 4.28125 -6.9375 C 4.320312 -6.8125 4.367188 -6.703125 4.421875 -6.609375 C 4.484375 -6.515625 4.546875 -6.421875 4.609375 -6.328125 C 4.671875 -6.234375 4.738281 -6.15625 4.8125 -6.09375 C 4.8125 -6.082031 4.835938 -6.066406 4.890625 -6.046875 C 4.941406 -6.023438 5.046875 -6.015625 5.203125 -6.015625 C 5.367188 -6.023438 5.5625 -6.050781 5.78125 -6.09375 C 6.375 -6.238281 6.796875 -6.515625 7.046875 -6.921875 C 7.203125 -7.160156 7.316406 -7.414062 7.390625 -7.6875 C 7.472656 -7.96875 7.523438 -8.257812 7.546875 -8.5625 C 7.609375 -9.238281 7.640625 -10.101562 7.640625 -11.15625 L 7.453125 -37.390625 L 7.453125 -37.78125 L 7.828125 -37.875 L 12.9375 -39.09375 L 13.53125 -39.234375 L 13.546875 -38.609375 L 13.71875 -12.28125 C 13.757812 -8.914062 13.164062 -6.289062 11.9375 -4.40625 Z M 11.9375 -4.40625 "/></g></g></g><g fill="#ffffff" fill-opacity="1"><g transform="translate(215.262767, 223.311648)"><g><path d="M 13.3125 -29.421875 C 13.34375 -25.972656 12.566406 -23.472656 10.984375 -21.921875 C 13.023438 -21.097656 14.046875 -18.523438 14.046875 -14.203125 L 14.078125 -13.296875 C 14.085938 -11.484375 13.941406 -9.878906 13.640625 -8.484375 C 13.347656 -7.085938 12.898438 -5.90625 12.296875 -4.9375 C 11.078125 -2.976562 9.109375 -1.675781 6.390625 -1.03125 L -1.046875 0.75 L -1.625 0.875 L -1.640625 0.265625 L -1.890625 -35.140625 L -1.90625 -35.53125 L -1.53125 -35.625 L 5.734375 -37.359375 C 8.410156 -37.992188 10.34375 -37.757812 11.53125 -36.65625 C 12.675781 -35.582031 13.265625 -33.535156 13.296875 -30.515625 Z M 4.40625 -5.75 L 5.625 -6.03125 C 6.5 -6.238281 7.097656 -6.691406 7.421875 -7.390625 C 7.785156 -8.160156 7.96875 -9.460938 7.96875 -11.296875 L 7.953125 -14.15625 C 7.921875 -15.875 7.753906 -17.03125 7.453125 -17.625 C 7.347656 -17.832031 7.191406 -17.972656 6.984375 -18.046875 C 6.773438 -18.128906 6.472656 -18.125 6.078125 -18.03125 L 4.3125 -17.609375 Z M 4.296875 -22.640625 L 5.59375 -22.953125 C 6.300781 -23.117188 6.753906 -23.457031 6.953125 -23.96875 C 7.191406 -24.570312 7.304688 -25.757812 7.296875 -27.53125 L 7.296875 -29.65625 C 7.285156 -30.882812 7.140625 -31.640625 6.859375 -31.921875 C 6.648438 -32.179688 6.222656 -32.234375 5.578125 -32.078125 L 4.234375 -31.765625 Z M 4.296875 -22.640625 "/></g></g></g></svg>